# xmcd
#
# Track frame offsets:
# 150
# 14766
# 34445
# 47408
# 60037
# 74135
# 88467
# 98814
# 111975
# 125770
# 141372
# 154457
# 170280
# 184297
# 203670
# 219182
#
# Disc length: 3202 seconds
#
# Revision: 0
# Processed by: cddbd v1.5.1PL0 Copyright (c) Steve Scherf et al.
# Submitted via: Audion 3.0.2 (http://www.panic.com/audion/)
#
DISCID=f30c8010
DTITLE=BJ Thomas - BJ Thomas
DYEAR=1900
DGENRE=
TTITLE0=Eyes of a New York woman
TTITLE1=Growing Pains theme
TTITLE2=Hooked on a feeling
TTITLE3=I can't help it
TTITLE4=I just can't help believing
TTITLE5=I'm so lonesome I could cry
TTITLE6=In the misty moonlight
TTITLE7=It's only love
TTITLE8=Momma
TTITLE9=Mr Bojangles
TTITLE10=No love at all
TTITLE11=Old fashion love
TTITLE12=Raindrops keep falling 
TTITLE13=Rock and roll lullaby
TTITLE14=Somebody done somebody wrong
TTITLE15=Tears in heaven
EXTD=
EXTT0=
EXTT1=
EXTT2=
EXTT3=
EXTT4=
EXTT5=
EXTT6=
EXTT7=
EXTT8=
EXTT9=
EXTT10=
EXTT11=
EXTT12=
EXTT13=
EXTT14=
EXTT15=
PLAYORDER=
